<svg width="144" height="56" viewBox="0 0 144 56" fill="none" xmlns="http://www.w3.org/2000/svg">
<g clip-path="url(#clip0_60951_2026)">
<path d="M33.6964 14.5859L28.8107 17.4529C28.8987 17.7352 28.9993 18.0054 29.1062 18.2816C26.415 20.6022 24.7109 23.997 24.7109 27.7787C24.7109 32.4996 27.3581 36.6127 31.2755 38.792C31.5648 38.2211 31.9295 37.687 32.357 37.2143L33.6964 14.5859Z" fill="#00AAE6"/>
<path d="M32.3672 37.2143C33.0211 36.496 33.8134 35.9006 34.7126 35.4831C34.6874 35.3112 34.6749 35.1332 34.6749 34.9552C34.6749 32.696 36.5549 30.8604 38.8689 30.8604C39.5228 30.8604 40.139 31.0078 40.6924 31.2656L33.7002 14.5859L32.3672 37.2143Z" fill="#38C6F4"/>
<path d="M43.0573 34.9551C43.0573 35.526 42.9378 36.0662 42.7241 36.5574C43.4786 37.202 44.1011 38 44.535 38.8963C45.2392 38.3254 46.151 37.9816 47.1382 37.9816C48.182 37.9816 49.1252 38.3684 49.8483 38.9946V37.6931L41.8438 32.082C42.5983 32.8187 43.0573 33.8317 43.0573 34.9551Z" fill="#38C6F4"/>
<path d="M28.2407 13.4414C28.2407 13.5335 28.2344 13.6256 28.2344 13.7177C28.2344 15.0191 28.4356 16.2715 28.8129 17.4502L33.6986 14.5833L28.2407 13.4414Z" fill="#38C6F4"/>
<path d="M32.4629 4.37109C29.9352 6.63025 28.3255 9.85322 28.25 13.4445L33.7079 14.5864L32.4629 4.37109Z" fill="#01ADE6"/>
<path d="M38.5979 1.3125C36.2588 1.77906 34.1524 2.85953 32.4609 4.37586L33.7059 14.5912L38.5979 1.3125Z" fill="#008DC8"/>
<path d="M45.2399 12.3087C45.4789 7.85793 46.6798 3.67726 48.6291 0C47.8683 0.650734 47.1829 1.38741 46.5918 2.19776C44.9507 1.46722 43.1272 1.05591 41.2094 1.05591C40.3165 1.05591 39.4362 1.14185 38.5936 1.31375L33.6953 14.5863L45.2399 12.3087Z" fill="#0095CA"/>
<path d="M67.765 7.87382C65.4636 5.85409 62.4203 4.62015 59.0814 4.62015C57.9056 4.62015 56.7612 4.77363 55.6734 5.06216C55.2395 4.28251 54.7176 3.55196 54.1328 2.88281C55.0446 5.1788 55.6859 7.6344 56.0003 10.1944L67.765 7.87382Z" fill="#0095CA"/>
<path d="M40.689 31.2636L45.4364 27.525C43.7449 27.6477 41.8523 27.7889 40.7959 27.9117V26.9602L46.3607 22.2024C45.6061 19.6179 45.2037 16.8615 45.2037 13.97C45.2037 13.4114 45.2226 12.8589 45.2477 12.3125L33.7031 14.5901L40.689 31.2636Z" fill="#008DC8"/>
<path d="M56.2389 13.9733C56.2389 15.8518 56.0629 17.6689 55.7422 19.4186L68.9279 9.0375C68.5695 8.62619 68.1734 8.2333 67.7647 7.87109L56.0063 10.1855C56.1635 11.4317 56.2389 12.6902 56.2389 13.9733Z" fill="#008DC8"/>
<path d="M55.0781 22.2033L58.3353 24.9904L63.9001 23.0137L69.817 10.177C69.5403 9.78412 69.2448 9.39736 68.9241 9.03516L55.7384 19.4162C55.5623 20.3678 55.3422 21.2948 55.0781 22.2033Z" fill="#005496"/>
<path d="M40.6875 31.2677L48.9687 28.3271C48.7738 27.9956 48.5914 27.6641 48.4091 27.3203C47.7928 27.3694 46.6673 27.4492 45.4349 27.5352L40.6875 31.2677Z" fill="#005496"/>
<path d="M78.4062 37.7102C81.1792 35.4817 82.9901 32.1605 83.1348 28.4219L78.8841 35.316L78.4062 37.7102Z" fill="#004A88"/>
<path d="M60.6453 26.9636V27.9151C58.8218 27.6941 54.4957 27.4301 53.0243 27.3135C52.8106 27.7187 52.5905 28.1116 52.3578 28.5045L53.5022 30.5426H51.5781V38.6645C52.2887 38.0813 53.2004 37.7314 54.2002 37.7314C54.7095 37.7314 55.1937 37.8235 55.6401 37.9892C55.9482 36.1659 57.5705 34.7724 59.526 34.7724C60.3623 34.7724 61.1295 35.0241 61.7645 35.4599C62.167 35.1223 62.6448 34.8583 63.1667 34.6987V34.6619C63.1667 32.7772 64.7324 31.2486 66.6628 31.2486C66.732 31.2486 66.7949 31.2547 66.8578 31.2609L63.8961 23.0039L58.3313 24.9807L60.6453 26.9636Z" fill="#007EBA"/>
<path d="M41.8508 32.0813L49.8553 37.6923V30.5465H47.9312L49.0756 28.5084C49.0378 28.447 49.0064 28.3856 48.9687 28.3242L40.6875 31.2648C41.1214 31.4674 41.5175 31.7498 41.8508 32.0813Z" fill="#007EBA"/>
<path d="M63.9062 23.0156L66.8679 31.2726C68.7039 31.3708 70.1627 32.8564 70.1627 34.6736C70.1627 34.8332 70.1501 34.9928 70.125 35.1524C72.1623 36.0303 73.7154 37.7922 74.275 39.9347C75.7904 39.4375 77.1863 38.6824 78.3999 37.7124L78.8778 35.3182L63.9062 23.0156Z" fill="#005E9E"/>
<path d="M81.6444 22.0117L63.9062 23.0185L78.8778 35.3211L83.1284 28.427C83.1347 28.2612 83.141 28.0955 83.141 27.9236C83.141 25.7872 82.6002 23.7736 81.6444 22.0117Z" fill="#0095CA"/>
<path d="M81.6444 22.0095C79.7266 18.4735 76.1425 15.9319 71.9108 15.3733C71.6152 13.4702 70.8858 11.7083 69.8232 10.1797L63.9062 23.0163L81.6444 22.0095Z" fill="#004185"/>
<path d="M50.6968 10.7805C51.8324 10.7805 52.7529 9.88177 52.7529 8.77308C52.7529 7.66439 51.8324 6.76562 50.6968 6.76562C49.5612 6.76562 48.6406 7.66439 48.6406 8.77308C48.6406 9.88177 49.5612 10.7805 50.6968 10.7805Z" fill="#0095CA"/>
<path d="M50.705 15.4283C51.4481 15.4283 52.0506 14.8401 52.0506 14.1145C52.0506 13.389 51.4481 12.8008 50.705 12.8008C49.9618 12.8008 49.3594 13.389 49.3594 14.1145C49.3594 14.8401 49.9618 15.4283 50.705 15.4283Z" fill="#008DC8"/>
<path d="M3.0182 55.8092L0 44.1758H1.62857L3.04335 50.0631C3.39547 51.5119 3.71616 52.9607 3.92994 54.0841H3.96767C4.1626 52.93 4.53358 51.5487 4.9423 50.0447L6.53314 44.1758H8.14284L9.59535 50.0815C9.92861 51.4628 10.2493 52.8441 10.4254 54.0719H10.4631C10.7083 52.7949 11.0479 51.4996 11.4188 50.0508L12.9908 44.1819H14.5628L11.1862 55.8153H9.56391L8.0611 49.7561C7.69011 48.2705 7.44489 47.1348 7.2814 45.9561H7.24367C7.02988 47.1102 6.76579 48.2521 6.32564 49.7561L4.6279 55.8153H3.0182V55.8092Z" fill="#004185"/>
<path d="M16.2808 51.905C16.3185 53.9616 17.6579 54.8026 19.2173 54.8026C20.3302 54.8026 21.003 54.6123 21.5878 54.3729L21.8519 55.4595C21.3049 55.6989 20.368 55.9752 19.0035 55.9752C16.3689 55.9752 14.7969 54.2808 14.7969 51.7638C14.7969 49.2469 16.3186 47.2578 18.8086 47.2578C21.6004 47.2578 22.3424 49.6582 22.3424 51.1929C22.3424 51.506 22.3046 51.7454 22.2921 51.8989H16.2808V51.905ZM20.8396 50.8184C20.8584 49.8546 20.4308 48.3506 18.6828 48.3506C17.1108 48.3506 16.4192 49.7687 16.2934 50.8184H20.8396Z" fill="#004185"/>
<path d="M24.2188 55.8104C24.2565 55.2394 24.2879 54.3923 24.2879 53.6556V43.5508H25.8285V48.7996H25.8662C26.4132 47.8665 27.4067 47.2649 28.7838 47.2649C30.9028 47.2649 32.4056 48.9899 32.393 51.5315C32.393 54.515 30.4626 56.0007 28.5574 56.0007C27.3187 56.0007 26.3315 55.5341 25.6901 54.4291H25.6398L25.5707 55.8104H24.2188ZM25.8285 52.4585C25.8285 52.6488 25.8662 52.8391 25.8976 53.011C26.1994 54.0669 27.0986 54.7913 28.2304 54.7913C29.859 54.7913 30.8273 53.496 30.8273 51.5806C30.8273 49.9047 29.9407 48.4743 28.2807 48.4743C27.2181 48.4743 26.2309 49.1802 25.9102 50.3405C25.8725 50.5124 25.8222 50.7211 25.8222 50.9606V52.4585H25.8285Z" fill="#004185"/>
<path d="M34.4266 44.3332C35.2063 44.1797 36.3193 44.0938 37.382 44.0938C39.0294 44.0938 40.0858 44.3884 40.8277 45.0453C41.4314 45.561 41.7646 46.359 41.7646 47.2553C41.7646 48.7901 40.7774 49.8092 39.5198 50.2266V50.2757C40.4379 50.5888 40.9849 51.4176 41.2679 52.6208C41.6577 54.2415 41.9407 55.365 42.1859 55.8131H40.5951C40.4002 55.4877 40.1361 54.4809 39.7965 53.0321C39.4444 51.4237 38.8093 50.8221 37.4071 50.773H35.9546V55.8131H34.4141V44.3332H34.4266ZM35.9609 49.6311H37.5329C39.1803 49.6311 40.2178 48.7533 40.2178 47.4211C40.2178 45.917 39.1048 45.2663 37.4763 45.2479C36.7343 45.2479 36.2061 45.3154 35.9546 45.3829V49.6311H35.9609Z" fill="#004185"/>
<path d="M51.7223 51.5629C51.7223 54.6508 49.5278 56.0014 47.4591 56.0014C45.1451 56.0014 43.3594 54.3439 43.3594 51.7041C43.3594 48.9047 45.2332 47.2656 47.6037 47.2656C49.9743 47.2656 51.7223 49.0091 51.7223 51.5629ZM44.9314 51.6489C44.9314 53.4783 46.0129 54.8596 47.5283 54.8596C49.0436 54.8596 50.1252 53.4967 50.1252 51.612C50.1252 50.1939 49.4021 48.4013 47.5597 48.4013C45.7236 48.4075 44.9314 50.065 44.9314 51.6489Z" fill="#004185"/>
<path d="M59.7999 55.4975C59.3912 55.7062 58.492 55.9825 57.3413 55.9825C54.757 55.9825 53.0781 54.2758 53.0781 51.7158C53.0781 49.1559 54.8828 47.2773 57.6746 47.2773C58.5926 47.2773 59.4101 47.5045 59.8313 47.7071L59.4792 48.8796C59.1082 48.6709 58.5235 48.4806 57.6746 48.4806C55.7128 48.4806 54.6501 49.8987 54.6501 51.6422C54.6501 53.576 55.9203 54.7669 57.618 54.7669C58.5046 54.7669 59.0831 54.5398 59.5295 54.3556L59.7999 55.4975Z" fill="#004185"/>
<path d="M63.1718 51.2859H63.2096C63.4233 50.9913 63.7252 50.6291 63.9704 50.3344L66.4793 47.449H68.3531L65.0456 50.8869L68.8121 55.8042H66.9194L63.9641 51.8016L63.1655 52.6672V55.8104H61.625V43.5508H63.1655V51.2859H63.1718Z" fill="#004185"/>
<path d="M70.8121 51.905C70.8498 53.9616 72.1891 54.8026 73.7485 54.8026C74.8615 54.8026 75.5343 54.6123 76.1191 54.3729L76.3832 55.4595C75.8361 55.6989 74.8992 55.9752 73.5347 55.9752C70.9001 55.9752 69.3281 54.2808 69.3281 51.7638C69.3281 49.2469 70.8498 47.2578 73.3398 47.2578C76.1316 47.2578 76.8736 49.6582 76.8736 51.1929C76.8736 51.506 76.8359 51.7454 76.8233 51.8989H70.8121V51.905ZM75.3708 50.8184C75.3897 49.8546 74.9621 48.3506 73.2141 48.3506C71.6421 48.3506 70.9504 49.7687 70.8247 50.8184H75.3708Z" fill="#004185"/>
<path d="M80.7 45.0547V47.455H82.9259V48.6092H80.7V53.1152C80.7 54.1527 81.0018 54.7359 81.8695 54.7359C82.2783 54.7359 82.5738 54.6868 82.7687 54.6315L82.8379 55.7734C82.5361 55.8962 82.0582 55.9821 81.4608 55.9821C80.7377 55.9821 80.1529 55.755 79.782 55.3437C79.3418 54.8955 79.1783 54.1527 79.1783 53.1704V48.6153H77.8516V47.4612H79.1783V45.4599L80.7 45.0547Z" fill="#004185"/>
<path d="M84.7812 44.3131C85.5232 44.1903 86.4979 44.0859 87.7366 44.0859C89.2582 44.0859 90.3712 44.4297 91.0754 45.0498C91.7294 45.6023 92.1192 46.4495 92.1192 47.4808C92.1192 48.5122 91.7986 49.3593 91.2012 49.9671C90.3901 50.8143 89.0633 51.244 87.5605 51.244C87.1015 51.244 86.6739 51.2256 86.3218 51.1397V55.7992H84.7812V44.3131ZM86.3218 49.9241C86.655 50.0101 87.0826 50.0469 87.5919 50.0469C89.4469 50.0469 90.5787 49.169 90.5787 47.5606C90.5787 45.9522 89.4657 45.283 87.768 45.283C87.0952 45.283 86.5859 45.3322 86.3155 45.4058V49.9241H86.3218Z" fill="#00AAE6"/>
<path d="M93.866 50.065C93.866 49.0828 93.8472 48.2356 93.7969 47.4559H95.1613L95.2117 49.095H95.2808C95.6707 47.9716 96.6076 47.2656 97.6514 47.2656C97.8274 47.2656 97.9532 47.284 98.0915 47.3147V48.7451C97.9343 48.7083 97.7708 48.696 97.5633 48.696C96.4692 48.696 95.6895 49.5064 95.4757 50.6482C95.438 50.8569 95.4066 51.0964 95.4066 51.3542V55.805H93.866V50.065Z" fill="#00AAE6"/>
<path d="M107.23 51.5629C107.23 54.6508 105.036 56.0014 102.967 56.0014C100.653 56.0014 98.8672 54.3439 98.8672 51.7041C98.8672 48.9047 100.741 47.2656 103.112 47.2656C105.482 47.2656 107.23 49.0091 107.23 51.5629ZM100.445 51.6489C100.445 53.4783 101.527 54.8596 103.042 54.8596C104.558 54.8596 105.639 53.4967 105.639 51.612C105.639 50.1939 104.916 48.4013 103.074 48.4013C101.231 48.4013 100.445 50.065 100.445 51.6489Z" fill="#00AAE6"/>
</g>
<defs>
<clipPath id="clip0_60951_2026">
<rect width="144" height="56" fill="white"/>
</clipPath>
</defs>
</svg>
