<svg width="80" height="80" viewBox="0 0 80 80" fill="none" xmlns="http://www.w3.org/2000/svg">
<g clip-path="url(#clip0_60370_27396)">
<circle cx="40" cy="40" r="29.5" fill="#EEF0F4" stroke="#DADBDC"/>
<path d="M40 80C62.0914 80 80 62.0914 80 40C80 17.9086 62.0914 0 40 0C17.9086 0 0 17.9086 0 40C0 62.0914 17.9086 80 40 80Z" fill="#F25D50"/>
<path d="M11.0174 39.9016C11.0174 36.7337 11.0057 33.5657 11.0174 30.3985C11.0283 27.9524 12.333 26.7759 14.7502 27.0126C14.9908 27.036 15.3244 27.1063 15.4385 27.2743C16.2978 28.5337 17.2916 27.9774 18.3377 27.5977C21.7267 26.3798 24.9338 26.9001 27.9775 28.7212C28.2408 28.8661 28.4816 29.0484 28.6924 29.2626C29.565 30.2243 30.2721 30.0649 31.2572 29.2516C36.0064 25.3282 44.3103 26.3899 47.5072 32.6712C47.7697 33.186 47.7916 34.0141 47.5728 34.554C45.7267 39.1016 45.7924 43.4384 48.6736 47.5868C49.9033 49.361 48.4392 52.6477 46.3299 53.0196C44.8252 53.2852 43.108 51.7923 43.0971 50.1399C43.0705 46.1555 43.0892 42.1782 43.0767 38.1969C43.0697 35.8915 41.9924 34.1938 39.9369 33.229C36.4994 31.6165 32.8494 34.4009 32.7994 38.0626C32.7463 42.0001 32.7869 45.9391 32.7705 49.8774C32.7635 51.6469 31.5697 52.9727 29.958 53.054C28.6221 53.1212 27.1135 51.6055 26.9767 50.0337C26.9361 49.5649 26.9557 49.0962 26.9549 48.6219C26.9494 45.0688 26.9549 41.5126 26.9377 37.9634C26.9213 35.0446 24.5486 32.5134 21.8103 32.7071C20.4511 32.8039 19.1804 33.4169 18.2586 34.4205C17.3368 35.4241 16.8337 36.7422 16.8525 38.1048C16.8744 42.2134 16.8252 46.3227 16.8103 50.4321C16.8057 51.7876 15.8627 52.368 14.7994 52.7759C13.6775 53.2055 12.5986 52.9032 11.9346 51.9618C11.4517 51.2774 11.0846 50.3587 11.0588 49.5321C10.958 46.3251 11.0174 43.1126 11.0174 39.9016Z" fill="white"/>
<path d="M54.4977 28.7607C46.9117 31.9701 43.7664 42.399 50.9641 49.3193C55.6703 53.8443 62.5047 54.163 67.8062 50.4263C69.4828 49.2435 69.4898 46.8607 67.8438 45.6341C66.4023 44.5599 65.1875 45.2505 63.9672 46.0638C60.4906 48.3865 55.7148 47.2701 53.5453 43.5795C51.1602 39.5216 53.6055 34.7841 58.0648 33.4373C60.1453 32.8123 62.1063 33.249 63.9516 34.3826C64.6773 34.8287 65.4984 35.4271 66.2711 35.4193C67.4891 35.4068 68.568 34.7412 68.9492 33.417C69.3398 32.0576 68.8562 30.7365 67.6211 29.9709C65.268 28.5162 62.8133 27.3443 59.9227 27.5693C59.9227 27.5693 56.8539 27.7638 54.4977 28.7607Z" fill="white"/>
</g>
<defs>
<clipPath id="clip0_60370_27396">
<rect width="80" height="80" fill="white"/>
</clipPath>
</defs>
</svg>
