<svg width="80" height="80" viewBox="0 0 80 80" fill="none" xmlns="http://www.w3.org/2000/svg">
<g clip-path="url(#clip0_60370_27389)">
<path d="M40 0.5C61.8153 0.5 79.5 18.1848 79.5 40C79.5 61.8153 61.8153 79.5 40 79.5C18.1848 79.5 0.5 61.8153 0.5 40C0.5 18.1848 18.1848 0.5 40 0.5Z" fill="white" stroke="#DADBDC"/>
<path d="M39.8992 65.4141C39.8992 65.4141 25.782 47.1953 24.6414 34.9219C23.5242 22.9688 30.6257 16.0937 39.5945 15.7422V15.7266C39.7117 15.7266 39.8367 15.7266 39.9539 15.7344C40.0711 15.7344 40.1961 15.7266 40.3132 15.7266V15.7422C49.282 16.0937 56.3757 22.9688 55.2664 34.9219C54.1257 47.1953 40.0007 65.4141 40.0007 65.4141H39.8992Z" fill="#FEB03D"/>
<path d="M39.9531 20.6484L43.6563 28.2813L51.9453 29.5L45.9531 35.4453L47.3672 43.8281L39.9531 39.8672L32.5391 43.8281L33.9531 35.4453L27.9531 29.5L36.2422 28.2813L39.9531 20.6484Z" fill="white"/>
</g>
<defs>
<clipPath id="clip0_60370_27389">
<rect width="80" height="80" fill="white"/>
</clipPath>
</defs>
</svg>
