<svg width="256" height="256" viewBox="0 0 256 256" fill="none" xmlns="http://www.w3.org/2000/svg">
<path d="M57.6364 106.676L40.0204 117.013C40.3378 118.031 40.7005 119.005 41.0859 120.001C31.3824 128.368 25.2383 140.609 25.2383 154.244C25.2383 171.266 34.7832 186.096 48.9078 193.954C49.9507 191.896 51.2656 189.97 52.8073 188.265L57.6364 106.676Z" fill="#00AAE6"/>
<path d="M52.8438 188.265C55.2016 185.676 58.0583 183.529 61.3004 182.023C61.2097 181.404 61.1643 180.762 61.1643 180.12C61.1643 171.974 67.9432 165.356 76.2865 165.356C78.6444 165.356 80.8662 165.887 82.8613 166.817L57.6502 106.676L52.8438 188.265Z" fill="#38C6F4"/>
<path d="M91.3913 180.121C91.3913 182.179 90.9605 184.127 90.1897 185.898C92.9103 188.222 95.1548 191.1 96.7192 194.332C99.2585 192.273 102.546 191.033 106.105 191.033C109.869 191.033 113.27 192.428 115.877 194.686V189.993L87.0156 169.762C89.7363 172.418 91.3913 176.07 91.3913 180.121Z" fill="#38C6F4"/>
<path d="M37.968 102.551C37.968 102.883 37.9453 103.215 37.9453 103.547C37.9453 108.239 38.6708 112.755 40.0311 117.005L57.6472 106.668L37.968 102.551Z" fill="#38C6F4"/>
<path d="M53.1902 69.8438C44.0761 77.9894 38.2721 89.6103 38 102.559L57.6792 106.676L53.1902 69.8438Z" fill="#01ADE6"/>
<path d="M75.3114 58.8164C66.8774 60.4987 59.2823 64.3944 53.1836 69.8618L57.6726 106.694L75.3114 58.8164Z" fill="#008DC8"/>
<path d="M99.2584 98.4666C100.12 82.4187 104.45 67.3448 111.479 54.0859C108.735 56.4322 106.264 59.0884 104.133 62.0103C98.2155 59.3762 91.6407 57.8932 84.7257 57.8932C81.5063 57.8932 78.3323 58.203 75.2942 58.8228L57.6328 106.679L99.2584 98.4666Z" fill="#0095CA"/>
<path d="M180.477 82.4762C172.179 75.1938 161.206 70.7447 149.167 70.7447C144.927 70.7447 140.801 71.298 136.879 72.3384C135.314 69.5272 133.433 66.8932 131.324 64.4805C134.612 72.759 136.924 81.613 138.058 90.8433L180.477 82.4762Z" fill="#0095CA"/>
<path d="M82.8486 166.811L99.9659 153.331C93.8672 153.774 87.0429 154.283 83.2341 154.726V151.295L103.299 134.14C100.578 124.821 99.1271 114.883 99.1271 104.457C99.1271 102.443 99.1951 100.45 99.2858 98.4805L57.6602 106.693L82.8486 166.811Z" fill="#008DC8"/>
<path d="M138.916 104.467C138.916 111.24 138.281 117.792 137.125 124.101L184.668 86.6705C183.376 85.1874 181.947 83.7708 180.474 82.4648L138.077 90.8097C138.644 95.3031 138.916 99.8408 138.916 104.467Z" fill="#008DC8"/>
<path d="M134.73 134.14L146.475 144.189L166.539 137.062L187.873 90.7773C186.876 89.3606 185.81 87.9661 184.654 86.6602L137.111 124.09C136.476 127.521 135.683 130.864 134.73 134.14Z" fill="#005496"/>
<path d="M82.8438 166.823L112.703 156.22C112 155.025 111.342 153.829 110.685 152.59C108.463 152.767 104.405 153.055 99.961 153.365L82.8438 166.823Z" fill="#005496"/>
<path d="M218.844 190.053C228.842 182.018 235.372 170.043 235.893 156.562L220.567 181.42L218.844 190.053Z" fill="#004A88"/>
<path d="M154.806 151.304V154.735C148.231 153.938 132.633 152.987 127.328 152.566C126.557 154.027 125.763 155.444 124.925 156.86L129.051 164.209H122.113V193.494C124.675 191.391 127.963 190.129 131.567 190.129C133.404 190.129 135.15 190.461 136.759 191.059C137.87 184.485 143.72 179.46 150.771 179.46C153.786 179.46 156.552 180.368 158.842 181.939C160.293 180.722 162.016 179.77 163.898 179.195V179.062C163.898 172.266 169.543 166.755 176.503 166.755C176.753 166.755 176.979 166.777 177.206 166.799L166.528 137.027L146.463 144.155L154.806 151.304Z" fill="#007EBA"/>
<path d="M87.0381 169.758L115.899 189.989V164.224H108.962L113.088 156.875C112.952 156.654 112.839 156.432 112.703 156.211L82.8438 166.814C84.4081 167.544 85.8364 168.562 87.0381 169.758Z" fill="#007EBA"/>
<path d="M166.562 137.07L177.241 166.842C183.861 167.196 189.121 172.553 189.121 179.105C189.121 179.68 189.076 180.256 188.985 180.831C196.331 183.997 201.931 190.349 203.948 198.074C209.412 196.281 214.446 193.559 218.821 190.062L220.544 181.429L166.562 137.07Z" fill="#005E9E"/>
<path d="M230.52 133.449L166.562 137.079L220.544 181.438L235.871 156.58C235.893 155.983 235.916 155.385 235.916 154.765C235.916 147.062 233.966 139.802 230.52 133.449Z" fill="#0095CA"/>
<path d="M230.52 133.443C223.605 120.693 210.682 111.53 195.424 109.515C194.358 102.653 191.728 96.3007 187.897 90.7891L166.562 137.073L230.52 133.443Z" fill="#004185"/>
<path d="M118.933 92.9568C123.028 92.9568 126.347 89.7161 126.347 85.7186C126.347 81.7211 123.028 78.4805 118.933 78.4805C114.839 78.4805 111.52 81.7211 111.52 85.7186C111.52 89.7161 114.839 92.9568 118.933 92.9568Z" fill="#0095CA"/>
<path d="M118.965 109.712C121.645 109.712 123.817 107.591 123.817 104.975C123.817 102.359 121.645 100.238 118.965 100.238C116.285 100.238 114.113 102.359 114.113 104.975C114.113 107.591 116.285 109.712 118.965 109.712Z" fill="#008DC8"/>
</svg>
